<svg width="74" height="73" viewBox="0 0 74 73" fill="none" xmlns="http://www.w3.org/2000/svg">
<path d="M66.7814 60.0628C65.7843 60.0628 64.8543 60.3217 64.0163 60.7397L52.4688 49.1922C52.8869 48.3543 53.1457 47.4243 53.1457 46.4271C53.1457 42.9986 50.3557 40.2085 46.9271 40.2085C45.93 40.2085 45 40.4674 44.162 40.8854L32.6136 29.337C33.0336 28.501 33.2915 27.57 33.2915 26.5729C33.2915 25.5757 33.0336 24.6467 32.6146 23.8106L44.164 12.2593C45 12.6793 45.93 12.9372 46.9271 12.9372C47.9243 12.9372 48.8543 12.6793 49.6922 12.2593L61.2397 23.8087C60.8217 24.6448 60.5628 25.5757 60.5628 26.5729C60.5628 30.0014 63.3528 32.7915 66.7814 32.7915C70.21 32.7915 73 30.0014 73 26.5729C73 23.1443 70.21 20.3543 66.7814 20.3543C65.7843 20.3543 64.8543 20.6122 64.0163 21.0321L52.4688 9.48274C52.8869 8.64669 53.1457 7.71572 53.1457 6.7186C53.1457 3.29003 50.3557 0.5 46.9271 0.5C43.4986 0.5 40.7085 3.29003 40.7085 6.7186C40.7085 7.71668 40.9674 8.64669 41.3873 9.48274L29.8389 21.0331C29.0019 20.6131 28.0709 20.3543 27.0729 20.3543C23.6443 20.3543 20.8543 23.1443 20.8543 26.5729C20.8543 27.57 21.1122 28.501 21.5321 29.337L9.98274 40.8854C9.14669 40.4674 8.21572 40.2085 7.2186 40.2085C3.79003 40.2085 1 42.9986 1 46.4271C1 49.8557 3.79003 52.6457 7.2186 52.6457C10.6472 52.6457 13.4372 49.8557 13.4372 46.4271C13.4372 45.43 13.1793 44.5 12.7593 43.662L24.3087 32.1136C25.1448 32.5336 26.0757 32.7915 27.0729 32.7915C28.07 32.7915 29.001 32.5336 29.837 32.1136L41.3854 43.662C40.9674 44.5 40.7085 45.43 40.7085 46.4271C40.7085 47.4262 40.9674 48.3562 41.3873 49.1922L29.837 60.7397C29.001 60.3217 28.07 60.0628 27.0729 60.0628C23.6443 60.0628 20.8543 62.8528 20.8543 66.2814C20.8543 69.71 23.6443 72.5 27.0729 72.5C30.5014 72.5 33.2915 69.71 33.2915 66.2814C33.2915 65.2843 33.0336 64.3543 32.6136 63.5163L44.164 51.9688C45 52.3869 45.93 52.6457 46.9271 52.6457C47.9243 52.6457 48.8543 52.3869 49.6922 51.9688L61.2397 63.5163C60.8217 64.3543 60.5628 65.2843 60.5628 66.2814C60.5628 69.71 63.3528 72.5 66.7814 72.5C70.21 72.5 73 69.71 73 66.2814C73 62.8528 70.21 60.0628 66.7814 60.0628ZM69.0729 26.5729C69.0729 27.8365 68.0451 28.8643 66.7814 28.8643C65.5177 28.8643 64.4899 27.8365 64.4899 26.5729C64.4899 25.3092 65.5177 24.2814 66.7814 24.2814C68.0451 24.2814 69.0729 25.3092 69.0729 26.5729ZM46.9271 4.42713C48.1908 4.42713 49.2186 5.45494 49.2186 6.7186C49.2186 7.98226 48.1908 9.01007 46.9271 9.01007C45.6635 9.01007 44.6357 7.98226 44.6357 6.7186C44.6357 5.45494 45.6635 4.42713 46.9271 4.42713ZM7.2186 48.7186C5.95494 48.7186 4.92713 47.6908 4.92713 46.4271C4.92713 45.1635 5.95494 44.1357 7.2186 44.1357C8.48226 44.1357 9.51007 45.1635 9.51007 46.4271C9.51007 47.6908 8.48226 48.7186 7.2186 48.7186ZM24.7814 26.5729C24.7814 25.3092 25.8092 24.2814 27.0729 24.2814C28.3365 24.2814 29.3643 25.3092 29.3643 26.5729C29.3643 27.8365 28.3365 28.8643 27.0729 28.8643C25.8092 28.8643 24.7814 27.8365 24.7814 26.5729ZM27.0729 68.5729C25.8092 68.5729 24.7814 67.5451 24.7814 66.2814C24.7814 65.0177 25.8092 63.9899 27.0729 63.9899C28.3365 63.9899 29.3643 65.0177 29.3643 66.2814C29.3643 67.5451 28.3365 68.5729 27.0729 68.5729ZM44.6357 46.4271C44.6357 45.1635 45.6635 44.1357 46.9271 44.1357C48.1908 44.1357 49.2186 45.1635 49.2186 46.4271C49.2186 47.6908 48.1908 48.7186 46.9271 48.7186C45.6635 48.7186 44.6357 47.6908 44.6357 46.4271ZM66.7814 68.5729C65.5177 68.5729 64.4899 67.5451 64.4899 66.2814C64.4899 65.0177 65.5177 63.9899 66.7814 63.9899C68.0451 63.9899 69.0729 65.0177 69.0729 66.2814C69.0729 67.5451 68.0451 68.5729 66.7814 68.5729Z" fill="curre" stroke="white"/>
</svg>
