<svg width="83" height="63" viewBox="0 0 83 63" fill="none" xmlns="http://www.w3.org/2000/svg">
<path d="M31.6 29.5286C27.7429 28.1143 25.3 27.0857 24.9143 24.3857C24.6572 22.4572 26.2 20.2715 28.2572 19.6286C30.4429 18.9857 33.5286 19.2429 36.3572 20.4C37.1286 20.7857 38.1572 20.2715 38.4143 19.5C38.8 18.7286 38.2857 17.7 37.5143 17.4429C35.8429 16.8 34.1714 16.4143 32.5 16.1572V13.3286C32.5 12.4286 31.7286 11.6572 30.8286 11.6572C29.9286 11.6572 29.1572 12.4286 29.1572 13.3286V16.1572C28.5143 16.2857 27.7429 16.4143 27.1 16.5429C23.5 17.5715 21.0572 21.1715 21.4429 24.7715C22.0857 29.6572 26.5857 31.2 30.1857 32.4857C32.2429 33.2572 34.1714 33.9 35.3286 35.0572C36.3572 35.9572 36.8714 37.2429 36.8714 38.5286C36.8714 39.8143 36.2286 40.9715 35.2 42C34.0429 43.0286 32.5 43.6715 30.4429 43.8C28.9 43.9286 27.1 43.6715 25.0429 43.2857C24.5286 43.1572 24.0143 43.0286 23.5 42.9C22.6 42.6429 21.7 43.1572 21.4429 43.9286C21.1857 44.8286 21.7 45.7286 22.4714 45.9857C23.1143 46.2429 23.7572 46.3715 24.4 46.3715C26.0714 46.6286 27.6143 46.8857 28.9 46.8857V49.5857C28.9 50.4857 29.6714 51.2572 30.5714 51.2572C31.4714 51.2572 32.2429 50.4857 32.2429 49.5857V46.6286C34.3 46.2429 36.1 45.4715 37.3857 44.1857C39.0571 42.6429 40.0857 40.5857 40.0857 38.4C40.0857 36.2143 39.1857 34.1572 37.5143 32.6143C36.2286 31.2 33.9143 30.4286 31.6 29.5286Z" fill="white" stroke="white" stroke-width="2"/>
<path d="M61.0429 31.5857C61.0429 15 47.5429 1.5 30.9571 1.5C14.3714 1.5 1 15 1 31.5857C1 48.1714 14.5 61.6714 31.0857 61.6714C47.6714 61.6714 61.0429 48.1714 61.0429 31.5857ZM31.0857 58.4571C16.3 58.4571 4.21429 46.3714 4.21429 31.5857C4.21429 16.8 16.3 4.71429 31.0857 4.71429C45.8714 4.71429 57.9571 16.8 57.9571 31.5857C57.8286 46.3714 45.8714 58.4571 31.0857 58.4571Z" fill="white" stroke="white" stroke-width="2"/>
<path d="M51.9143 1.5C51.2714 1.5 50.5 1.5 49.8571 1.62857C48.9571 1.75714 48.3143 2.52857 48.3143 3.3C48.4428 4.2 49.0857 4.84286 49.9857 4.84286C50.6286 4.84286 51.1428 4.84286 51.7857 4.84286C66.7 4.71428 78.7857 16.8 78.7857 31.5857C78.7857 46.3714 66.7 58.4571 51.9143 58.4571C51.2714 58.4571 50.7571 58.4571 49.9857 58.3286C49.0857 58.3286 48.4428 58.9714 48.4428 59.8714C48.4428 60.7714 49.0857 61.4143 49.9857 61.5429C50.6286 61.5429 51.2714 61.6714 52.0428 61.6714C68.5 61.6714 82 48.1714 82 31.5857C82 15 68.5 1.5 51.9143 1.5Z" fill="white" stroke="white" stroke-width="2"/>
</svg>
