<svg width="73" height="70" viewBox="0 0 73 70" fill="none" xmlns="http://www.w3.org/2000/svg">
<path d="M71.0636 65.9996L46.6956 41.6328C46.7141 41.6057 46.7227 41.5762 46.7386 41.5492C49.9494 37.3502 51.8817 32.1248 51.8817 26.4421C51.8817 12.6896 40.6921 1.5 26.9408 1.5C13.1896 1.5 2 12.6883 2 26.4421C2 40.1946 13.1896 51.3829 26.9408 51.3829C34.0924 51.3829 40.5348 48.3394 45.0866 43.4999L69.3268 67.7377C69.5665 67.9774 69.8811 68.0978 70.1958 68.0978C70.5105 68.0978 70.8252 67.9774 71.0649 67.7377C71.5443 67.2583 71.5443 66.4802 71.0636 65.9996ZM26.9408 48.9245C14.5442 48.9245 4.45844 38.8388 4.45844 26.4421C4.45844 14.0454 14.5442 3.95844 26.9408 3.95844C39.3375 3.95844 49.4233 14.0442 49.4233 26.4421C49.4233 38.8388 39.3375 48.9245 26.9408 48.9245Z" fill="white" stroke="white" stroke-width="3"/>
</svg>
