<svg width="80" height="81" viewBox="0 0 80 81" fill="none" xmlns="http://www.w3.org/2000/svg">
<path d="M72.1455 0.366394H51.4631C47.5198 0.366394 44.3812 3.87011 44.3812 8.07456V30.5859C44.3812 34.878 47.6003 38.2941 51.4631 38.2941H72.1455C76.0889 38.2941 79.2274 34.7904 79.2274 30.5859V8.07456C79.2274 3.87011 76.0889 0.366394 72.1455 0.366394ZM71.9846 30.4983H51.6241V8.24975H72.065V30.4983H71.9846ZM1.4069 21.3887C0.360713 20.25 0.360713 18.4105 1.4069 17.3594L10.7421 7.19864C12.1102 5.70956 14.4441 5.88474 15.5707 7.72419C16.3755 9.12568 16.1341 10.9651 15.0879 12.1038L11.6274 15.9579H34.2412C36.0117 15.9579 37.3798 17.5346 37.3798 19.374C37.3798 21.3011 35.9312 22.7902 34.2412 22.7902H11.6274L15.0879 26.5567C16.1341 27.6954 16.456 29.5348 15.5707 30.9363C14.4441 32.7757 12.1102 32.9509 10.7421 31.4619L1.4069 21.3887ZM7.76453 80.6014H28.4469C32.3903 80.6014 35.5288 77.0977 35.5288 72.8933V50.3819C35.5288 46.0899 32.3098 42.6737 28.4469 42.6737H7.76453C3.82119 42.6737 0.682618 46.1774 0.682618 50.3819V72.8933C0.682618 77.0977 3.82119 80.6014 7.76453 80.6014ZM7.92548 50.4695H28.3664V72.7181H7.92548V50.4695ZM78.5032 59.5792C79.5493 60.7179 79.5493 62.5573 78.5032 63.6084L69.1679 73.7692C67.7998 75.2583 65.466 75.0831 64.3393 73.2436C63.5346 71.8422 63.776 70.0027 64.8222 68.864L68.2827 65.0975H45.6688C43.8984 65.0975 42.5303 63.5208 42.5303 61.6814C42.5303 59.7543 43.9788 58.2653 45.6688 58.2653H68.2827L64.8222 54.4988C63.776 53.3601 63.4541 51.5206 64.3393 50.1191C65.466 48.2797 67.7998 48.1045 69.1679 49.5936L78.5032 59.5792Z" fill="white"/>
</svg>
